<?xml version="1.0" encoding="utf-8"?>
<!-- Generator: Adobe Illustrator 27.4.1, SVG Export Plug-In . SVG Version: 6.00 Build 0)  -->
<svg version="1.1" id="Capa_1" xmlns="http://www.w3.org/2000/svg" xmlns:xlink="http://www.w3.org/1999/xlink" x="0px" y="0px"
	 viewBox="0 0 220.1 210.4" style="enable-background:new 0 0 220.1 210.4;" xml:space="preserve">
<style type="text/css">
	.st0{fill:#81BA27;}
</style>
<g>
	<path class="st0" d="M111.8,8c3,0.5,5.7,1.3,8.5,2c13.7,3.3,25.6,10,35.7,20.3c4.8,4.9,8.9,10.6,12.1,16.7
		c3.8,7.4,6.4,15.2,7.5,23.5c0.4,3,0.8,6,0.7,8.9c-0.1,5.1-0.3,10.2-1.7,15.3c-2.4,8.2-6.1,15.8-11.5,22.5
		c-4.5,5.5-9.7,10.3-16,13.8c-7.8,4.4-16,6.9-25,7.7c-11.8,1-22.1-2.3-31.3-9.3c-8.6-6.5-14.1-15-16.7-25.5
		c-4.1-16.5,3.7-33.7,18.1-40.3c3.1-1.4,7.7-2.9,10.9-2.6c-3.7,1.6-7.3,2.7-10.1,5.1c-4.5,3.8-8.2,8.1-10,13.8
		c-4.7,14.1,0,25.6,10.3,35.1c8.2,7.6,18.5,9.9,29.2,7.3c14.4-3.5,24.6-12.5,29.9-26.5c2.3-6.3,2.8-12.8,1.6-19.7
		c-2.9-16.5-11.5-28.8-26.1-36.7c-9.8-5.3-20.3-7.2-31.6-5.3C68.5,39,51.2,55.5,42.6,81.7c-2.6,7.8-2.7,16.1-1.9,24.4
		c1.5,15.4,6.9,29.3,15.9,41.8c10.2,14.2,23.6,24.6,39.9,31.1c9.3,3.7,19,5.5,29,6.3c10.6,0.8,20.5-1.6,30.5-4.2
		c8.1-2.1,15.8-5.4,23.3-9.3c8.2-4.2,15.4-9.6,21.8-16.2c3.4-3.5,6.3-7.3,9-11.4c0.3-0.5,0.5-1.1,1.4-1.1c-1.3,4.9-3.6,9.2-6.3,13.4
		c-7.6,11.9-18.1,20.9-30.2,28c-11.5,6.8-23.8,11.7-36.9,14.6c-7.3,1.7-14.8,1.5-22.3,1.4c-10.3,0-20.2-2-29.9-5.4
		c-11.3-4-21.5-9.8-31-17.2c-13.5-10.5-23.3-23.9-30.5-39.1c-3.5-7.4-5.8-15.4-7.4-23.6c-1.7-8.6-1.9-17.2-1.5-25.8
		c0.3-7.1,2.2-14.1,4.4-20.9c3.1-9.6,7.9-18.4,14.1-26.3c5.3-6.8,11.4-12.7,18.5-17.7c6.3-4.4,12.9-8.1,20.1-10.8
		c6.1-2.2,11.4-3.6,17.8-4.9c2.1-0.4,6.4-1.1,7.7-1.2C102.1,7.4,108.9,7.4,111.8,8z"/>
</g>
</svg>
