<?xml version="1.0" encoding="utf-8"?>
<!-- Generator: Adobe Illustrator 27.4.1, SVG Export Plug-In . SVG Version: 6.00 Build 0)  -->
<svg version="1.1" id="Capa_1" xmlns="http://www.w3.org/2000/svg" xmlns:xlink="http://www.w3.org/1999/xlink" x="0px" y="0px"
	 viewBox="0 0 595.28 210.38" style="enable-background:new 0 0 595.28 210.38;" xml:space="preserve">
<style type="text/css">
	.st0{fill:#81BA27;}
	.st1{fill:#5F5F5F;}
</style>
<g>
	<path class="st0" d="M279.3,28.19c1.38,0.25,2.63,0.62,3.94,0.94c6.33,1.53,11.84,4.63,16.52,9.4c2.24,2.28,4.13,4.9,5.59,7.74
		c1.77,3.43,2.96,7.02,3.49,10.87c0.19,1.37,0.35,2.79,0.32,4.1c-0.05,2.34-0.12,4.73-0.8,7.05c-1.13,3.81-2.81,7.31-5.32,10.38
		c-2.09,2.55-4.49,4.74-7.38,6.39c-3.59,2.04-7.4,3.21-11.54,3.55c-5.44,0.44-10.2-1.08-14.47-4.31c-3.97-2.99-6.52-6.93-7.73-11.77
		c-1.91-7.64,1.7-15.56,8.35-18.65c1.45-0.67,3.55-1.36,5.04-1.18c-1.73,0.72-3.37,1.25-4.68,2.36c-2.07,1.75-3.77,3.74-4.64,6.39
		c-2.16,6.53,0.02,11.82,4.76,16.22c3.81,3.53,8.56,4.58,13.52,3.39c6.67-1.6,11.39-5.76,13.8-12.23c1.08-2.9,1.3-5.91,0.74-9.09
		c-1.34-7.65-5.32-13.31-12.06-16.97c-4.53-2.46-9.38-3.33-14.6-2.43c-12.86,2.21-20.88,9.83-24.86,21.95
		c-1.19,3.62-1.26,7.44-0.89,11.28c0.69,7.13,3.2,13.55,7.35,19.33c4.73,6.58,10.89,11.37,18.44,14.38
		c4.32,1.72,8.79,2.56,13.42,2.9c4.88,0.36,9.48-0.76,14.09-1.96c3.76-0.98,7.31-2.5,10.75-4.29c3.77-1.96,7.12-4.45,10.09-7.5
		c1.58-1.62,2.92-3.39,4.15-5.27c0.15-0.23,0.25-0.49,0.66-0.53c-0.61,2.26-1.68,4.27-2.91,6.19c-3.53,5.5-8.35,9.65-13.94,12.94
		c-5.33,3.13-11.02,5.4-17.05,6.77c-3.39,0.77-6.86,0.68-10.31,0.66c-4.76-0.02-9.36-0.92-13.83-2.49
		c-5.22-1.84-9.93-4.54-14.31-7.96c-6.25-4.87-10.78-11.03-14.1-18.08c-1.62-3.44-2.69-7.12-3.44-10.9
		c-0.8-3.97-0.88-7.94-0.71-11.92c0.14-3.29,1.02-6.5,2.03-9.64c1.43-4.45,3.67-8.5,6.52-12.18c2.43-3.14,5.26-5.89,8.54-8.2
		c2.91-2.04,5.96-3.76,9.29-4.97c2.84-1.03,5.26-1.67,8.25-2.28c0.99-0.2,2.98-0.52,3.54-0.54
		C274.82,27.94,277.94,27.94,279.3,28.19z"/>
	<path class="st0" d="M132.87,161.32c-5.35,0-10.71,0.02-16.06-0.02c-0.92-0.01-1.12,0.26-1.1,1.15c0.18,6.23,4.73,12.36,11.13,13.7
		c4.81,1,9.29-0.11,13.23-3.19c1.73-1.35,2.95-3.11,4.13-4.89c0.48-0.72,0.8-0.69,1.4-0.36c0.83,0.46,1.67,0.93,2.54,1.31
		c0.5,0.22,0.7,0.8,0.44,1.27c-3.11,5.55-7.54,9.36-13.95,10.46c-3.69,0.63-7.4,0.57-11-0.57c-5.78-1.84-9.46-5.93-11.68-11.41
		c-2.32-5.72-2.18-11.51,0.51-17.01c2.75-5.64,7.24-9.46,13.55-10.66c5.85-1.11,11.43-0.12,16.27,3.42
		c4.28,3.14,6.76,7.52,7.52,12.82c0.12,0.86,0.3,1.71,0.43,2.57c0.16,1.01-0.11,1.45-1.3,1.43
		C143.58,161.27,138.23,161.32,132.87,161.32z M130.26,156.96c2.88,0,5.75,0,8.63,0c1.64,0,3.28,0.01,4.91-0.01
		c0.37,0,0.92,0.1,0.73-0.57c-0.88-3.11-2.32-5.89-5-7.85c-3.21-2.35-6.84-3.18-10.76-2.92c-4.07,0.26-7.33,2.06-9.84,5.26
		c-1.13,1.44-1.77,3.11-2.46,4.77c-0.3,0.72,0.09,1.32,0.87,1.32C121.64,156.96,125.95,156.96,130.26,156.96z"/>
	<path class="st0" d="M224.2,181.06c-10.82,0.62-20.08-9.35-19.95-20.53c0.11-9.96,8.77-20.68,21.49-19.75
		c10.46,0.76,18.55,8.81,18.67,20.16C244.53,171.57,235.96,181.6,224.2,181.06z M209.55,161.25c-0.29,1.97,0.21,3.99,1.04,5.85
		c2.49,5.54,7.61,9.9,15.39,9.17c4.28-0.4,7.67-2.44,10.16-5.87c2.43-3.35,3.43-7.1,2.9-11.29c-0.42-3.35-1.69-6.27-3.99-8.68
		c-3.32-3.48-7.38-5.05-12.28-4.63c-3.58,0.31-6.51,1.85-8.91,4.28C210.91,153.08,209.19,156.74,209.55,161.25z"/>
	<path class="st1" d="M371.52,160.96c-0.56-10.94,8.86-20.46,20.05-20.27c11.32,0.2,19.89,8.7,19.94,20.32
		c0.04,11.25-8.43,19.09-17.63,20.05C379.9,182.51,371.04,171.34,371.52,160.96z M406.4,161.44c-0.13-8.93-6.25-15.64-14.94-15.77
		c-8.05-0.12-14.2,6.44-14.76,13.36c-0.93,11.46,7.16,17.41,14.59,17.4C399.47,176.41,405.97,170.74,406.4,161.44z"/>
	<path class="st1" d="M425.78,147.86c1.52-1.44,2.9-2.89,4.57-4.02c2.59-1.76,5.37-2.94,8.59-3.04c3.75-0.12,7.11,0.75,10.1,3.11
		c1.73,1.37,2.83,3.14,3.62,5.11c1.09,2.72,1.32,5.61,1.48,8.52c0.39,7.13,0.06,14.27,0.2,21.4c0.02,0.89-0.17,1.28-1.09,1.21
		c-0.94-0.07-1.89-0.1-2.83-0.01c-1.01,0.11-1.16-0.32-1.16-1.2c0.04-4.79-0.03-9.58,0.04-14.37c0.04-2.79-0.13-5.57-0.27-8.35
		c-0.15-2.8-0.64-5.57-2.55-7.89c-1.33-1.61-3.09-2.33-5.02-2.7c-7.17-1.39-13.2,3.32-15.07,9.7c-1.02,3.48-0.41,7.23-0.69,10.77
		c-0.31,3.97-0.37,7.96,0.05,11.92c0.19,1.81-0.02,2.25-1.32,2.1c-0.8-0.09-1.6-0.1-2.4,0c-1.07,0.14-1.31-0.2-1.3-1.17
		c0.04-9.26,0.02-18.52,0.02-27.78c0-2.83,0.03-5.67-0.02-8.5c-0.01-0.87,0.27-1.11,1.31-0.98c0.94,0.12,1.89,0.05,2.83-0.02
		c0.71-0.05,0.94,0.18,0.93,0.83C425.76,144.28,425.78,146.07,425.78,147.86z"/>
	<path class="st0" d="M178.52,181.06c-4.6,0.19-9.03-1.06-12.92-3.9c-4.25-3.1-6.99-7.25-7.83-12.51c-0.66-4.19-0.29-8.3,1.56-12.15
		c1.74-3.61,4.29-6.53,7.79-8.59c4.2-2.48,8.76-3.53,13.56-3.09c5.21,0.47,10.07,2.02,13.81,5.98c0.67,0.71,1.24,1.52,1.79,2.33
		c0.28,0.4,0.37,0.77-0.29,1.09c-0.88,0.42-1.64,1.06-2.47,1.59c-0.47,0.3-0.92,0.42-1.34-0.14c-2.59-3.38-6.07-5.09-10.23-5.88
		c-4.64-0.88-8.85-0.03-12.73,2.48c-3.29,2.13-5.66,5.16-6.38,9c-1.42,7.53,1.76,14.57,8.89,17.74c5.22,2.31,10.5,2.03,15.55-0.67
		c1.76-0.94,3.29-2.28,4.6-3.81c0.59-0.69,1.16-0.87,1.88-0.2c0.23,0.21,0.52,0.35,0.78,0.53c2.6,1.81,2.76,0.98,0.48,3.61
		c-2.8,3.22-6.48,5.11-10.65,6.07C182.51,180.96,180.63,181.07,178.52,181.06z"/>
	<path class="st1" d="M331.45,181.04c-5.34,0.25-10.05-1.22-14.03-4.51c-3.57-2.96-6.07-6.68-6.96-11.4
		c-0.71-3.73-0.53-7.39,0.79-10.85c2.94-7.72,8.95-12.29,17.84-13.44c1.67-0.22,3.37-0.2,5.04,0.02c4.63,0.62,8.91,2.15,12.49,5.3
		c1.03,0.91,1.75,2.11,2.54,3.23c0.27,0.37,0.04,0.42-0.23,0.59c-0.99,0.62-1.97,1.27-2.93,1.93c-0.6,0.42-0.89-0.05-1.18-0.39
		c-1.58-1.82-3.36-3.39-5.59-4.37c-4.82-2.11-9.72-2.41-14.62-0.34c-4.16,1.75-7.17,4.71-8.66,9c-2.88,8.31,2.03,17.33,9.92,19.74
		c6.94,2.12,13.04,0.66,18.21-4.47c1.33-1.32,1.33-1.32,2.88-0.32c0.62,0.4,1.22,0.86,1.88,1.17c0.6,0.28,0.36,0.63,0.15,0.91
		c-2.3,3.12-5.29,5.37-8.91,6.75C337.26,180.67,334.34,181.24,331.45,181.04z"/>
	<path class="st1" d="M267.46,148.59c0.11-1.77,0.06-3.55-0.11-5.32c-0.12-1.3,0.1-1.68,1.05-1.63c0.93,0.05,1.87,0.11,2.8,0
		c1.04-0.11,1.2,0.32,1.2,1.22c-0.04,4.63-0.04,9.26-0.01,13.9c0.02,3.15,0.04,6.31,0.21,9.45c0.27,5.07,4.18,9.07,9.13,9.84
		c3.66,0.57,7.05,0.09,10.03-2.19c2.28-1.75,3.54-4.11,3.85-6.99c0.85-8.03,0.27-16.08,0.41-24.11c0.02-0.92,0.28-1.18,1.15-1.11
		c0.92,0.07,1.86,0.07,2.78,0c0.89-0.06,1.2,0.19,1.19,1.16c-0.05,6.39,0.1,12.78-0.07,19.17c-0.1,3.9-0.4,7.84-2.35,11.39
		c-2.34,4.28-5.96,6.76-10.77,7.45c-3.5,0.5-7,0.54-10.39-0.7c-4.89-1.79-7.98-5.24-9.28-10.25c-0.79-3.06-1.05-6.19-0.95-9.37
		C267.46,156.53,267.22,152.55,267.46,148.59z"/>
	<path class="st1" d="M252.88,153.43c0-8.46,0.02-16.93-0.02-25.39c-0.01-1.08,0.3-1.4,1.55-1.22c0.75,0.11,1.52,0.14,2.27,0.02
		c0.95-0.15,1.31,0.06,1.24,0.8c-0.03,0.36-0.01,0.72-0.01,1.08c0,16.69-0.01,33.38,0.03,50.06c0,1.24-0.4,1.49-1.69,1.31
		c-0.75-0.11-1.52-0.08-2.28,0.02c-0.9,0.11-1.12-0.14-1.11-0.92c0.04-3.35,0.02-6.71,0.02-10.06
		C252.88,163.89,252.88,158.66,252.88,153.43z"/>
	<path class="st1" d="M358.16,160.94c0-6.03,0.02-12.06-0.02-18.08c-0.01-0.9,0.18-1.33,1.17-1.21c1.25,0.15,2.89-0.54,3.68,0.29
		c0.72,0.76,0.2,2.36,0.2,3.59c0.01,11.1-0.01,22.2,0.03,33.29c0,1.05-0.24,1.43-1.31,1.3c-1.21-0.15-2.85,0.51-3.55-0.27
		c-0.6-0.67-0.2-2.27-0.2-3.46C358.15,171.24,358.16,166.09,358.16,160.94z"/>
	<path class="st1" d="M401.61,123.59c-1.15,1.24-2.11,2.3-3.09,3.34c-2.17,2.28-4.37,4.54-6.52,6.84c-0.56,0.6-1.13,0.89-1.97,0.83
		c-0.99-0.08-2-0.02-2.99-0.02c-0.76,0-1.25-0.02,0.83-2.09c2.18-2.17,3.97-4.72,5.22-7.53c0.46-1.03,0.7-1.37,1.33-1.37
		C396.73,123.6,399.04,123.59,401.61,123.59z"/>
	<path class="st1" d="M356.52,130.01c-0.32-1.99,1.72-4.13,3.8-4.13c2.58,0,4.41,1.9,4.37,3.93c-0.05,2.49-1.73,4.29-4.18,4.29
		C358.19,134.1,356.53,132.4,356.52,130.01z"/>
</g>
</svg>
